PathFileType	4	(X/Y/Z)	C:\Users\WrightLab\Desktop\Jo\P5V47.trc
DataRate	CameraRate	NumFrames	NumMarkers	Units	OrigDataRate	OrigDataStartFrame	OrigNumFrames
100.00	100.00	       17	19	mm	100.00	670	       892
Frame#	Time	Headset_Front			Headset_Back			Headset_Left			Headset_Right			Left_Shoulder			Right_Shoulder			Sternum			C7			Left Elbow			Right Elbow			Left Wrist			Right Wrist			Left ASIS			Right ASIS			S2			Left Knee			Right Knee			Left Ankle			Right Ankle			
		X1	Y1	Z1	X2	Y2	Z2	X3	Y3	Z3	X4	Y4	Z4	X5	Y5	Z5	X6	Y6	Z6	X7	Y7	Z7	X8	Y8	Z8	X9	Y9	Z9	X10	Y10	Z10	X11	Y11	Z11	X12	Y12	Z12	X13	Y13	Z13	X14	Y14	Z14	X15	Y15	Z15	X16	Y16	Z16	X17	Y17	Z17	X18	Y18	Z18	X19	Y19	Z19	

670	6.690	276.29419	1646.01233	836.72156	214.12715	1662.19006	698.14728							592.80127	1521.13745	651.45679	177.03755	1480.51904	610.39838	366.06778	1344.49731	711.74371	391.26086	1530.51660	498.08582	664.33380	1222.31799	670.70630	112.94263	1193.43872	605.46869	492.67197	1148.49597	804.67816	150.40051	1098.34546	820.28955	512.83325	953.26794	756.03308	242.89082	969.33533	701.11969	450.81003	973.50690	452.44528	585.46729	543.00275	770.74878	257.53458	519.88763	687.42590	587.82489	118.38880	677.18536	271.13004	246.36172	413.02707	
671	6.700	272.87381	1648.08740	842.76770	213.66194	1664.45203	702.69019							592.47565	1522.80884	663.87280	177.75049	1482.96936	614.35596	365.08771	1345.76343	718.77051	394.40005	1532.62109	506.01804	664.10199	1223.81567	685.02667	113.85877	1195.44678	607.75073	489.12570	1150.76538	814.55829	147.56577	1100.14319	822.97137	511.19666	954.40387	765.04498	240.29393	970.61249	704.61890	455.46536	975.24902	459.99234	587.12219	544.04810	777.00031	252.91380	519.80017	706.92157	587.85999	118.52942	677.23822	274.54178	249.81120	428.03372	
672	6.710	268.94888	1650.21326	848.27582										592.61523	1524.62878	676.94922	178.87622	1484.72229	618.36987	363.70074	1347.04431	726.28119	397.64960	1534.49622	514.05933	662.58777	1225.65430	700.75916	114.54188	1197.69470	609.72522	485.49808	1153.11182	825.19867	145.10545	1101.57983	825.54633	506.33533	954.58807	772.68884	238.65782	972.17566	708.35846	458.72794	977.74127	468.34216	588.86157	544.70844	782.93372	248.15919	519.99188	726.69305	587.90796	118.63516	677.26996	277.97177	252.37480	442.84091	
673	6.720	264.85324	1652.11462	853.89105	211.94008	1667.75610	711.57068							592.09662	1525.87781	689.16968	179.81587	1486.35583	622.17114	362.07346	1348.17493	733.40076	400.67145	1535.94617	522.76752	661.87280	1227.05579	713.77155	114.77800	1199.43726	612.13947	481.51694	1155.47229	835.33374	141.96130	1103.29675	827.74548	503.85669	955.69891	780.78632	235.89246	973.86029	711.78632	462.42169	979.39117	476.68442	590.15198	544.36664	789.93134	242.58862	521.08264	745.71759	587.89893	119.33961	678.05585	281.02756	253.88501	458.68579	
674	6.730	261.00415	1653.46167	858.99292										590.61877	1527.58423	701.07379	180.86722	1487.82141	625.95331	360.45657	1349.30225	739.90527	403.23318	1537.49341	531.10388	659.30505	1229.00842	730.09332	115.62856	1201.05261	613.51831	476.89203	1157.56213	845.49335	138.78616	1104.46985	830.14838	501.03860	956.79065	789.06451	233.83319	975.08362	715.23767	465.38730	981.20587	484.87811	591.72919	543.93176	795.56390	237.04282	524.03967	764.20264	587.96613	119.69234	678.25238	284.51593	254.18037	474.52774	
675	6.740	257.29825	1654.73804	863.90302										589.88275	1528.64685	712.72772	181.83969	1488.82886	629.67413	358.90027	1350.14551	747.28979	405.69672	1539.29089	538.71606	658.21844	1230.27527	743.76654	115.99967	1202.29626	615.32367	472.24612	1159.75110	855.34283	134.44968	1106.05115	831.90985	498.56738	957.31287	797.25623	231.60307	975.99725	718.61426	468.10309	982.74872	493.32068	593.01233	543.72266	801.87036	231.74518	530.98920	779.73773	588.14642	120.04034	678.95172	288.16043	253.60745	491.02927	
676	6.750	253.61470	1655.52441	868.71912										589.35144	1529.54968	725.19537	182.61363	1489.94385	633.49146	357.80902	1350.57129	754.17798	408.19171	1540.34021	546.72064	656.44769	1230.93774	758.24731	116.43798	1203.45166	617.10583	467.50601	1161.78711	864.58771	131.82735	1107.30151	834.21063	496.18579	957.34137	805.04938	228.69139	977.48016	722.39752	470.37561	984.20258	501.51938	591.29858	543.55896	808.62939	227.06802	539.50854	793.98041	588.15430	120.13913	679.00287	291.35010	252.05803	507.61981	
677	6.760	248.21123	1656.60876	873.57458										588.36810	1530.13721	736.87830	183.25061	1490.72388	637.11859	355.76816	1351.18262	760.82306	410.38260	1541.43848	554.68158	653.87396	1231.93420	772.20374	117.23636	1204.45923	618.39868	462.29578	1163.77466	874.44739	129.12192	1108.63428	835.84589	493.18915	957.97614	813.85809	226.58720	977.69745	726.26556	472.81332	985.03485	509.48706	588.73248	544.34650	814.15179	222.80768	548.02783	806.47424	588.18024	120.37522	679.17737	293.91074	249.13161	525.12244	
678	6.770	244.28561	1657.20276	877.90399										584.87335	1528.96924	746.26917	183.89999	1491.51147	640.86334	353.67001	1351.49683	767.20612	412.27194	1542.52173	562.43982	651.82190	1232.73828	785.46698	117.90715	1205.24194	619.83612	457.08212	1165.20435	884.39099	126.06264	1109.37866	837.61639	490.46625	958.23492	821.48901	224.30563	978.33862	729.71252	474.61954	986.26501	517.30750	584.37708	544.57422	819.20239	218.34451	556.43384	818.22870	588.30103	120.47339	679.37823	295.53970	246.33768	542.48853	
679	6.780	239.71759	1657.55945	882.15973										584.70282	1529.99475	757.98254	184.36426	1492.16431	644.44025	352.02191	1352.09949	773.48987	414.04306	1543.33606	570.23553	648.33838	1233.50061	799.12512	118.22633	1206.14038	622.05566	452.36411	1166.37903	892.31317	122.67216	1110.20081	839.53137	487.49692	958.17017	828.59778	221.32634	978.89490	732.98151	477.25858	986.76306	525.02228	580.03235	544.23517	824.30511	214.37981	563.18573	829.15002	588.29150	120.60400	679.48560	298.18329	241.74687	561.15454	
680	6.790	235.60098	1657.78479	886.17523										581.53345	1529.32251	768.57233	184.83495	1492.69934	647.94958	350.05988	1352.54187	780.61041	415.54541	1544.30408	577.86963	645.85657	1233.46191	811.27319	118.97821	1207.26172	623.45850	446.97192	1167.62854	901.30475	118.99950	1111.11597	841.52533	484.74506	958.71967	835.97540	218.94872	979.40942	736.43158	478.72437	987.78198	532.42804	574.00916	543.27783	828.18567	209.28325	568.89868	838.58838	588.15778	120.80962	679.88531	299.67252	236.53586	579.84021	
681	6.800	229.65770	1658.40063	890.33557										580.16473	1529.63123	779.14832	185.43466	1493.04675	651.54529	347.87036	1353.58606	787.66400	416.99716	1544.77051	586.02216	641.84235	1233.64355	825.66846	119.60136	1207.87573	624.94794	441.13449	1168.98218	910.16107	115.42735	1112.16968	843.16797	481.70966	958.84949	843.67328	217.04236	979.24634	740.41718	480.21069	988.88068	539.00745	569.31836	542.48157	833.06915	204.35577	573.23938	847.89545	587.94904	121.14803	680.27454	301.34021	230.67268	599.72852	
682	6.810	225.12347	1658.41394	894.01111										578.70612	1529.97144	790.16461	185.83745	1493.52271	655.12219	346.13232	1353.34741	793.84662	418.48483	1545.15491	593.38416	638.40497	1233.98206	838.56580	119.71432	1208.39233	626.97400	435.80673	1170.01135	918.52350	112.24883	1112.60437	844.73242	478.01062	957.69153	849.72589	211.68370	980.74268	744.07916	481.86673	989.12646	545.23456	562.89105	541.77985	836.61218	199.09097	577.38354	855.69128	587.70294	121.50754	680.37512	301.36298	224.76216	619.09442	
683	6.820	220.85106	1658.29126	897.45679	413.15094	1729.20447	848.50104							575.94458	1529.64746	800.28473	186.01494	1493.72485	658.79510	343.89676	1353.46790	799.86627	419.89499	1545.87671	601.45837	635.22339	1233.56580	851.05280	120.28610	1208.87866	628.57312	429.53003	1170.97400	927.40753	108.82025	1112.81067	846.41077	475.10120	957.61652	856.54742	208.94199	981.22290	747.58667	482.57526	989.50793	551.87408	557.87378	539.51556	838.53650	194.90404	581.34692	861.97284	587.76105	121.49474	680.62091	300.56876	217.75797	639.19489	
684	6.830	215.51544	1658.63367	900.89032	409.38220	1729.28503	856.38165							574.20715	1529.50146	811.23785	186.26593	1493.49268	662.51007	341.67743	1353.68018	806.34320	421.62778	1545.61719	610.91028	630.87079	1233.28699	863.43176	120.87128	1209.42310	630.51001	423.76163	1171.66443	935.36847	105.32848	1113.46741	848.13593	471.54065	956.94446	864.42157	206.93474	981.02478	751.69403	482.98904	989.67786	559.16473	553.16504	537.53741	839.00934	191.04335	583.79095	867.47003	587.67603	121.89109	680.95532	300.28387	210.35846	659.61426	
685	6.840	210.21457	1658.65137	904.34229										571.72699	1529.26648	821.35211	186.25879	1494.08618	666.71112	339.10287	1353.33057	812.47284	422.53561	1545.55847	618.84357	625.64929	1233.89185	876.59521	121.10482	1210.01379	632.88013	417.54538	1172.14709	943.49628	101.67851	1113.61914	849.63782	468.19540	956.81476	871.32251	204.31830	981.20056	755.59204	483.97250	990.16492	565.50409	546.67773	535.75598	841.12695	187.17795	585.92279	872.65332	587.60938	122.25964	681.52417	299.04608	203.00264	679.91803	
686	6.850	205.86255	1658.43787	907.24121										569.58838	1528.88586	832.08606	186.36739	1494.18225	670.61121	336.22186	1353.04663	818.97626	423.09995	1545.55786	626.66187	621.44281	1233.63147	887.59180	121.53276	1210.21497	634.31616	411.38492	1172.97900	951.18323	98.22870	1113.82727	851.25269	464.85028	956.08295	879.06476	201.85341	981.29547	759.22223	484.59012	989.88489	573.16949	540.47668	533.70459	840.51965	183.31731	587.47369	877.13037	587.51819	122.37705	681.98651	297.50598	195.55682	701.07129	
